
<global>
ampeg_release=0.3
</global>

<group>
group_label=RR1
seq_length=2
seq_position=1

<region>
hikey=B2
hivel=127
lokey=F#2
lovel=0
offset=3424
pitch_keycenter=A2
sample=Precisionbass_Harmonic_MP_A3_RR1.opus
</region>

<region>
hikey=B3
hivel=127
lokey=A3
lovel=0
offset=8840
pitch_keycenter=A3
sample=Precisionbass_Harmonic_MP_A4_RR1.opus
</region>

<region>
hikey=B4
hivel=127
lokey=A#4
lovel=0
offset=5710
pitch_keycenter=B4
sample=Precisionbass_Harmonic_MP_B5_RR1.opus
</region>

<region>
hikey=C#4
hivel=127
lokey=C4
lovel=0
offset=7728
pitch_keycenter=C#4
sample=Precisionbass_Harmonic_MP_C#5_RR1.opus
</region>

<region>
hikey=F2
hivel=127
lokey=D2
lovel=0
offset=2114
pitch_keycenter=D2
sample=Precisionbass_Harmonic_MP_D3_RR1.opus
</region>

<region>
hikey=D#3
hivel=127
lokey=C3
lovel=0
offset=9734
pitch_keycenter=D3
sample=Precisionbass_Harmonic_MP_D4_RR1.opus
</region>

<region>
end=518160
hikey=E4
hivel=127
lokey=D4
lovel=0
offset=8908
pitch_keycenter=D4
sample=Precisionbass_Harmonic_MP_D5_RR1.opus
</region>

<region>
hikey=F3
hivel=127
lokey=E3
lovel=0
offset=6142
pitch_keycenter=E3
sample=Precisionbass_Harmonic_MP_E4_RR1.opus
</region>

<region>
hivel=127
key=F#3
lovel=0
offset=4545
sample=Precisionbass_Harmonic_MP_F#4_RR1.opus
</region>

<region>
hikey=F#4
hivel=127
lokey=F4
lovel=0
offset=8836
pitch_keycenter=F#4
sample=Precisionbass_Harmonic_MP_F#5_RR1.opus
</region>

<region>
hikey=G#3
hivel=127
lokey=G3
lovel=0
offset=8563
pitch_keycenter=G3
sample=Precisionbass_Harmonic_MP_G4_RR1.opus
</region>

<region>
hikey=A4
hivel=127
lokey=G4
lovel=0
offset=6993
pitch_keycenter=G4
sample=Precisionbass_Harmonic_MP_G5_RR1.opus
</region>
</group>

<group>
group_label=RR2
seq_length=2
seq_position=2

<region>
hikey=B2
hivel=127
lokey=F#2
lovel=0
offset=9638
pitch_keycenter=A2
sample=Precisionbass_Harmonic_MP_A3_RR2.opus
</region>

<region>
hikey=B3
hivel=127
lokey=A3
lovel=0
offset=8301
pitch_keycenter=A3
sample=Precisionbass_Harmonic_MP_A4_RR2.opus
</region>

<region>
hikey=B4
hivel=127
lokey=A#4
lovel=0
offset=6884
pitch_keycenter=B4
sample=Precisionbass_Harmonic_MP_B5_RR2.opus
</region>

<region>
hikey=C#4
hivel=127
lokey=C4
lovel=0
offset=5624
pitch_keycenter=C#4
sample=Precisionbass_Harmonic_MP_C#5_RR2.opus
</region>

<region>
hikey=F2
hivel=127
lokey=D2
lovel=0
offset=1130
pitch_keycenter=D2
sample=Precisionbass_Harmonic_MP_D3_RR2.opus
</region>

<region>
hikey=D#3
hivel=127
lokey=C3
lovel=0
offset=6380
pitch_keycenter=D3
sample=Precisionbass_Harmonic_MP_D4_RR2.opus
</region>

<region>
hikey=E4
hivel=127
lokey=D4
lovel=0
offset=7620
pitch_keycenter=D4
sample=Precisionbass_Harmonic_MP_D5_RR2.opus
</region>

<region>
hikey=F3
hivel=127
lokey=E3
lovel=0
offset=7483
pitch_keycenter=E3
sample=Precisionbass_Harmonic_MP_E4_RR2.opus
</region>

<region>
hivel=127
key=F#3
lovel=0
offset=6373
sample=Precisionbass_Harmonic_MP_F#4_RR2.opus
</region>

<region>
hikey=F#4
hivel=127
lokey=F4
lovel=0
offset=7166
pitch_keycenter=F#4
sample=Precisionbass_Harmonic_MP_F#5_RR2.opus
</region>

<region>
hikey=G#3
hivel=127
lokey=G3
lovel=0
offset=5884
pitch_keycenter=G3
sample=Precisionbass_Harmonic_MP_G4_RR2.opus
</region>

<region>
hikey=A4
hivel=127
lokey=G4
lovel=0
offset=6871
pitch_keycenter=G4
sample=Precisionbass_Harmonic_MP_G5_RR2.opus
</region>
</group>